<svg width="24" height="24" viewBox="0 0 24 24" fill="none" xmlns="http://www.w3.org/2000/svg">
<g clip-path="url(#clip0_1_69)">
<rect width="24" height="24" fill="white"/>
<circle cx="12" cy="12" r="11" stroke="black" stroke-width="2"/>
<path d="M7.45099 19V17.7216L12.2521 12.4659C12.8156 11.8504 13.2796 11.3153 13.6442 10.8608C14.0088 10.4015 14.2786 9.97064 14.4538 9.56818C14.6338 9.16098 14.7237 8.73485 14.7237 8.28977C14.7237 7.77841 14.6006 7.3357 14.3544 6.96165C14.1129 6.58759 13.7815 6.29877 13.3601 6.09517C12.9387 5.89157 12.4652 5.78977 11.9396 5.78977C11.3809 5.78977 10.8932 5.90578 10.4766 6.13778C10.0646 6.36506 9.74503 6.68466 9.51776 7.09659C9.29522 7.50852 9.18395 7.99148 9.18395 8.54545H7.50781C7.50781 7.69318 7.70431 6.94508 8.0973 6.30114C8.49029 5.6572 9.02533 5.1553 9.70241 4.79545C10.3842 4.43561 11.1489 4.25568 11.9964 4.25568C12.8487 4.25568 13.6039 4.43561 14.2621 4.79545C14.9202 5.1553 15.4363 5.64062 15.8104 6.25142C16.1844 6.86222 16.3714 7.54167 16.3714 8.28977C16.3714 8.82481 16.2744 9.34801 16.0803 9.85938C15.8909 10.366 15.5594 10.9318 15.0859 11.5568C14.6172 12.1771 13.9661 12.9347 13.1328 13.8295L9.86577 17.3239V17.4375H16.6271V19H7.45099Z" fill="black"/>
</g>
<defs>
<clipPath id="clip0_1_69">
<rect width="24" height="24" fill="white"/>
</clipPath>
</defs>
</svg>
