<svg width="24" height="24" viewBox="0 0 24 24" fill="none" xmlns="http://www.w3.org/2000/svg">
<g clip-path="url(#clip0_1_87)">
<rect width="24" height="24" fill="white"/>
<circle cx="12" cy="12" r="11" stroke="black" stroke-width="2"/>
<path d="M12.0027 19.1989C11.0273 19.1989 10.1655 19.026 9.41744 18.6804C8.67406 18.33 8.09405 17.8494 7.67738 17.2386C7.26071 16.6231 7.05475 15.9223 7.05948 15.1364C7.05475 14.5208 7.17549 13.9527 7.4217 13.4318C7.66791 12.9062 8.00408 12.4683 8.43022 12.1179C8.86109 11.7628 9.34168 11.5379 9.87198 11.4432V11.358C9.17596 11.178 8.62198 10.7874 8.21005 10.1861C7.79812 9.58002 7.59452 8.8911 7.59925 8.11932C7.59452 7.38068 7.78155 6.72017 8.16033 6.13778C8.53912 5.5554 9.05996 5.09612 9.72283 4.75994C10.3904 4.42377 11.1504 4.25568 12.0027 4.25568C12.8455 4.25568 13.5983 4.42377 14.2612 4.75994C14.9241 5.09612 15.4449 5.5554 15.8237 6.13778C16.2072 6.72017 16.4013 7.38068 16.4061 8.11932C16.4013 8.8911 16.1906 9.58002 15.774 10.1861C15.362 10.7874 14.8152 11.178 14.1333 11.358V11.4432C14.6589 11.5379 15.1324 11.7628 15.5538 12.1179C15.9752 12.4683 16.3114 12.9062 16.5623 13.4318C16.8133 13.9527 16.9411 14.5208 16.9458 15.1364C16.9411 15.9223 16.728 16.6231 16.3066 17.2386C15.89 17.8494 15.31 18.33 14.5666 18.6804C13.8279 19.026 12.9733 19.1989 12.0027 19.1989ZM12.0027 17.6364C12.6608 17.6364 13.229 17.5298 13.7072 17.3168C14.1854 17.1037 14.5547 16.803 14.8152 16.4148C15.0756 16.0265 15.2082 15.572 15.2129 15.0511C15.2082 14.5019 15.0661 14.0166 14.7868 13.5952C14.5074 13.1738 14.1262 12.8423 13.6433 12.6009C13.1651 12.3594 12.6182 12.2386 12.0027 12.2386C11.3824 12.2386 10.8284 12.3594 10.3407 12.6009C9.85778 12.8423 9.47662 13.1738 9.19727 13.5952C8.92264 14.0166 8.7877 14.5019 8.79244 15.0511C8.7877 15.572 8.91317 16.0265 9.16886 16.4148C9.42927 16.803 9.80096 17.1037 10.2839 17.3168C10.7669 17.5298 11.3398 17.6364 12.0027 17.6364ZM12.0027 10.733C12.5235 10.733 12.9851 10.6288 13.3876 10.4205C13.7948 10.2121 14.1144 9.92093 14.3464 9.54688C14.5784 9.17282 14.6968 8.73485 14.7015 8.23295C14.6968 7.74053 14.5808 7.31203 14.3535 6.94744C14.1262 6.57812 13.8114 6.29403 13.4089 6.09517C13.0065 5.89157 12.5377 5.78977 12.0027 5.78977C11.4582 5.78977 10.9823 5.89157 10.5751 6.09517C10.1679 6.29403 9.85304 6.57812 9.6305 6.94744C9.40797 7.31203 9.29906 7.74053 9.3038 8.23295C9.29906 8.73485 9.41033 9.17282 9.63761 9.54688C9.86961 9.92093 10.1892 10.2121 10.5964 10.4205C11.0036 10.6288 11.4724 10.733 12.0027 10.733Z" fill="black"/>
</g>
<defs>
<clipPath id="clip0_1_87">
<rect width="24" height="24" fill="white"/>
</clipPath>
</defs>
</svg>
