<svg width="24" height="24" viewBox="0 0 24 24" fill="none" xmlns="http://www.w3.org/2000/svg">
<g clip-path="url(#clip0_1_75)">
<rect width="24" height="24" fill="white"/>
<circle cx="12" cy="12" r="11" stroke="black" stroke-width="2"/>
<path d="M11.9672 19.1989C11.1338 19.1989 10.3833 19.0331 9.71573 18.7017C9.04812 18.3703 8.51308 17.9157 8.11062 17.3381C7.70816 16.7604 7.48799 16.1023 7.45011 15.3636H9.15465C9.22094 16.0218 9.51924 16.5663 10.0495 16.9972C10.5846 17.4233 11.2238 17.6364 11.9672 17.6364C12.5637 17.6364 13.094 17.4967 13.5581 17.2173C14.0268 16.938 14.3938 16.5545 14.6589 16.0668C14.9288 15.5743 15.0637 15.018 15.0637 14.3977C15.0637 13.7633 14.9241 13.1974 14.6447 12.7003C14.3701 12.1984 13.9913 11.803 13.5083 11.5142C13.0254 11.2254 12.4738 11.0786 11.8535 11.0739C11.4084 11.0691 10.9515 11.1378 10.4828 11.2798C10.014 11.4171 9.62814 11.5947 9.32511 11.8125L7.67738 11.6136L8.55806 4.45455H16.1149V6.01705H10.0353L9.52397 10.3068H9.6092C9.90749 10.0701 10.2815 9.87358 10.7314 9.71733C11.1812 9.56108 11.6499 9.48295 12.1376 9.48295C13.0278 9.48295 13.8208 9.69602 14.5169 10.1222C15.2176 10.5436 15.7669 11.1212 16.1646 11.8551C16.5671 12.589 16.7683 13.4271 16.7683 14.3693C16.7683 15.2973 16.56 16.1259 16.1433 16.8551C15.7314 17.5795 15.1632 18.1525 14.4387 18.5739C13.7143 18.9905 12.8904 19.1989 11.9672 19.1989Z" fill="black"/>
</g>
<defs>
<clipPath id="clip0_1_75">
<rect width="24" height="24" fill="white"/>
</clipPath>
</defs>
</svg>
