<svg width="24" height="24" viewBox="0 0 24 24" fill="none" xmlns="http://www.w3.org/2000/svg">
<g clip-path="url(#clip0_1_90)">
<rect width="24" height="24" fill="white"/>
<circle cx="12" cy="12" r="11" stroke="black" stroke-width="2"/>
<path d="M11.8961 4.25568C12.4927 4.26042 13.0893 4.37405 13.6859 4.59659C14.2825 4.81913 14.827 5.18845 15.3194 5.70455C15.8118 6.21591 16.2072 6.9143 16.5055 7.79972C16.8038 8.68513 16.9529 9.79545 16.9529 11.1307C16.9529 12.4233 16.8298 13.5715 16.5836 14.5753C16.3422 15.5743 15.9918 16.4171 15.5325 17.1037C15.0779 17.7902 14.524 18.3111 13.8706 18.6662C13.2219 19.0213 12.488 19.1989 11.6689 19.1989C10.8545 19.1989 10.1277 19.0379 9.48846 18.7159C8.85399 18.3892 8.33316 17.937 7.92596 17.3594C7.5235 16.777 7.26545 16.1023 7.15181 15.3352H8.88477C9.04102 16.0028 9.35115 16.5545 9.81516 16.9901C10.2839 17.4209 10.9018 17.6364 11.6689 17.6364C12.791 17.6364 13.6764 17.1463 14.3251 16.1662C14.9785 15.1861 15.3052 13.8011 15.3052 12.0114H15.1916C14.9264 12.4091 14.6116 12.7524 14.247 13.0412C13.8824 13.33 13.4776 13.5526 13.0325 13.7088C12.5874 13.8651 12.1139 13.9432 11.612 13.9432C10.7787 13.9432 10.014 13.7372 9.318 13.3253C8.62672 12.9086 8.07274 12.3381 7.65607 11.6136C7.24414 10.8845 7.03817 10.0511 7.03817 9.11364C7.03817 8.22348 7.23704 7.40909 7.63477 6.67045C8.03723 5.92708 8.60067 5.33523 9.32511 4.89489C10.0543 4.45455 10.9113 4.24148 11.8961 4.25568ZM11.8961 5.81818C11.2995 5.81818 10.7621 5.96733 10.2839 6.26562C9.81043 6.55919 9.43401 6.95691 9.15465 7.45881C8.88003 7.95597 8.74272 8.50758 8.74272 9.11364C8.74272 9.7197 8.8753 10.2713 9.14045 10.7685C9.41033 11.2609 9.77728 11.6539 10.2413 11.9474C10.71 12.2363 11.2427 12.3807 11.8393 12.3807C12.2891 12.3807 12.7082 12.2931 13.0964 12.1179C13.4847 11.938 13.8232 11.6941 14.112 11.3864C14.4056 11.0739 14.6352 10.7211 14.801 10.3281C14.9667 9.9304 15.0495 9.5161 15.0495 9.08523C15.0495 8.51704 14.9122 7.98437 14.6376 7.48722C14.3677 6.99006 13.9937 6.58759 13.5154 6.27983C13.042 5.97206 12.5022 5.81818 11.8961 5.81818Z" fill="black"/>
</g>
<defs>
<clipPath id="clip0_1_90">
<rect width="24" height="24" fill="white"/>
</clipPath>
</defs>
</svg>
