<svg width="24" height="24" viewBox="0 0 24 24" fill="none" xmlns="http://www.w3.org/2000/svg">
<g clip-path="url(#clip0_1_93)">
<rect width="24" height="24" fill="white"/>
<circle cx="12" cy="12" r="11" stroke="black" stroke-width="2"/>
<path d="M12 19.1989C10.9299 19.1989 10.0185 18.9077 9.26562 18.3253C8.51278 17.7382 7.9375 16.8883 7.53977 15.7756C7.14205 14.6581 6.94318 13.3087 6.94318 11.7273C6.94318 10.1553 7.14205 8.81297 7.53977 7.70028C7.94223 6.58286 8.51989 5.73059 9.27273 5.14347C10.0303 4.55161 10.9394 4.25568 12 4.25568C13.0606 4.25568 13.9673 4.55161 14.7202 5.14347C15.4777 5.73059 16.0554 6.58286 16.4531 7.70028C16.8556 8.81297 17.0568 10.1553 17.0568 11.7273C17.0568 13.3087 16.858 14.6581 16.4602 15.7756C16.0625 16.8883 15.4872 17.7382 14.7344 18.3253C13.9815 18.9077 13.0701 19.1989 12 19.1989ZM12 17.6364C13.0606 17.6364 13.8845 17.125 14.4716 16.1023C15.0587 15.0795 15.3523 13.6212 15.3523 11.7273C15.3523 10.4678 15.2173 9.39536 14.9474 8.50994C14.6823 7.62453 14.2988 6.94981 13.7969 6.4858C13.2997 6.02178 12.7008 5.78977 12 5.78977C10.9489 5.78977 10.1274 6.30824 9.53551 7.34517C8.94366 8.37737 8.64773 9.83807 8.64773 11.7273C8.64773 12.9867 8.7803 14.0568 9.04545 14.9375C9.31061 15.8182 9.69176 16.4882 10.1889 16.9474C10.6908 17.4067 11.2945 17.6364 12 17.6364Z" fill="black"/>
</g>
<defs>
<clipPath id="clip0_1_93">
<rect width="24" height="24" fill="white"/>
</clipPath>
</defs>
</svg>
