<svg width="24" height="24" viewBox="0 0 24 24" fill="none" xmlns="http://www.w3.org/2000/svg">
<g clip-path="url(#clip0_1_78)">
<rect width="24" height="24" fill="white"/>
<circle cx="12" cy="12" r="11" stroke="black" stroke-width="2"/>
<path d="M12.0533 19.1989C11.1158 19.1989 10.2801 19.0379 9.54616 18.7159C8.817 18.3939 8.23698 17.9465 7.80611 17.3736C7.37997 16.7959 7.14796 16.1259 7.11009 15.3636H8.89986C8.93774 15.8324 9.09872 16.2372 9.38281 16.5781C9.6669 16.9143 10.0386 17.1747 10.4979 17.3594C10.9571 17.544 11.4661 17.6364 12.0249 17.6364C12.6499 17.6364 13.2038 17.5275 13.6868 17.3097C14.1697 17.0919 14.5485 16.7888 14.8232 16.4006C15.0978 16.0123 15.2351 15.5625 15.2351 15.0511C15.2351 14.5161 15.1025 14.045 14.8374 13.6378C14.5722 13.2259 14.1839 12.9039 13.6726 12.6719C13.1612 12.4399 12.5362 12.3239 11.7976 12.3239H10.6328V10.7614H11.7976C12.3752 10.7614 12.8819 10.6572 13.3175 10.4489C13.7578 10.2405 14.1011 9.94697 14.3473 9.56818C14.5982 9.18939 14.7237 8.74432 14.7237 8.23295C14.7237 7.74053 14.6148 7.31203 14.397 6.94744C14.1792 6.58286 13.8714 6.29877 13.4737 6.09517C13.0807 5.89157 12.6167 5.78977 12.0817 5.78977C11.5798 5.78977 11.1063 5.8821 10.6612 6.06676C10.2209 6.24669 9.86103 6.50947 9.58168 6.85511C9.30232 7.19602 9.15081 7.60795 9.12713 8.09091H7.42259C7.45099 7.3286 7.68063 6.66098 8.11151 6.08807C8.54238 5.51042 9.10582 5.06061 9.80185 4.73864C10.5026 4.41667 11.272 4.25568 12.1101 4.25568C13.0097 4.25568 13.7815 4.43797 14.4254 4.80256C15.0694 5.1624 15.5642 5.63826 15.9098 6.23011C16.2554 6.82197 16.4283 7.46117 16.4283 8.14773C16.4283 8.96686 16.2128 9.66525 15.782 10.2429C15.3558 10.8205 14.7758 11.2206 14.0419 11.4432V11.5568C14.9605 11.7083 15.6778 12.099 16.1939 12.7287C16.71 13.3537 16.968 14.1278 16.968 15.0511C16.968 15.8419 16.7526 16.5521 16.3217 17.1818C15.8956 17.8068 15.3132 18.2992 14.5746 18.6591C13.8359 19.0189 12.9955 19.1989 12.0533 19.1989Z" fill="black"/>
</g>
<defs>
<clipPath id="clip0_1_78">
<rect width="24" height="24" fill="white"/>
</clipPath>
</defs>
</svg>
