<svg width="24" height="24" viewBox="0 0 24 24" fill="none" xmlns="http://www.w3.org/2000/svg">
<g clip-path="url(#clip0_1_81)">
<rect width="24" height="24" fill="white"/>
<circle cx="12" cy="12" r="11" stroke="black" stroke-width="2"/>
<path d="M12.095 19.1989C11.4984 19.1894 10.9018 19.0758 10.3052 18.858C9.70863 18.6402 9.16412 18.2732 8.6717 17.7571C8.17927 17.2363 7.78391 16.5331 7.48562 15.6477C7.18732 14.7576 7.03817 13.6402 7.03817 12.2955C7.03817 11.0076 7.15891 9.86648 7.40039 8.87216C7.64187 7.87311 7.99225 7.03267 8.45153 6.35085C8.91081 5.6643 9.46478 5.14347 10.1135 4.78835C10.7669 4.43324 11.5031 4.25568 12.3223 4.25568C13.1367 4.25568 13.8611 4.41903 14.4956 4.74574C15.1348 5.06771 15.6556 5.51752 16.0581 6.09517C16.4605 6.67282 16.7209 7.33807 16.8393 8.09091H15.1064C14.9454 7.4375 14.6329 6.89536 14.1689 6.46449C13.7048 6.03362 13.0893 5.81818 12.3223 5.81818C11.1954 5.81818 10.3076 6.30824 9.65891 7.28835C9.01497 8.26847 8.69064 9.64394 8.6859 11.4148H8.79954C9.06469 11.0123 9.37956 10.669 9.74414 10.3849C10.1135 10.0961 10.5207 9.87358 10.9657 9.71733C11.4108 9.56108 11.8819 9.48295 12.3791 9.48295C13.2124 9.48295 13.9747 9.69129 14.666 10.108C15.3573 10.5199 15.9113 11.0904 16.3279 11.8196C16.7446 12.544 16.9529 13.375 16.9529 14.3125C16.9529 15.2121 16.7517 16.036 16.3493 16.7841C15.9468 17.5275 15.381 18.1193 14.6518 18.5597C13.9274 18.9953 13.0751 19.2083 12.095 19.1989ZM12.095 17.6364C12.6916 17.6364 13.2266 17.4872 13.7001 17.1889C14.1783 16.8906 14.5547 16.4905 14.8294 15.9886C15.1087 15.4867 15.2484 14.928 15.2484 14.3125C15.2484 13.7112 15.1135 13.1643 14.8436 12.6719C14.5784 12.1747 14.2115 11.7794 13.7427 11.4858C13.2787 11.1922 12.7484 11.0455 12.1518 11.0455C11.702 11.0455 11.283 11.1354 10.8947 11.3153C10.5065 11.4905 10.1655 11.732 9.87198 12.0398C9.58316 12.3475 9.35588 12.7003 9.19016 13.098C9.02444 13.491 8.94158 13.9053 8.94158 14.3409C8.94158 14.9186 9.07653 15.4583 9.34641 15.9602C9.62103 16.4621 9.99509 16.867 10.4686 17.1747C10.9468 17.4825 11.4889 17.6364 12.095 17.6364Z" fill="black"/>
</g>
<defs>
<clipPath id="clip0_1_81">
<rect width="24" height="24" fill="white"/>
</clipPath>
</defs>
</svg>
